<?xml version="1.0" standalone="no"?>
<!DOCTYPE svg PUBLIC "-//W3C//DTD SVG 1.1//EN" "http://www.w3.org/Graphics/SVG/1.1/DTD/svg11.dtd" >
<svg xmlns="http://www.w3.org/2000/svg">
<metadata>Generated by IcoMoon</metadata>
<defs>
<font id="blanja_iconset" horiz-adv-x="1024">
<font-face units-per-em="1024" ascent="960" descent="-64" />
<missing-glyph horiz-adv-x="1024" />
<glyph unicode="&#x20;" horiz-adv-x="512" d="" />
<glyph unicode="&#xe900;" glyph-name="account" horiz-adv-x="970" d="M485.053 421.053c133.389 0 242.526 109.137 242.526 242.526s-109.137 242.526-242.526 242.526c-133.784-0.397-242.129-108.743-242.526-242.488v-0.038c0-133.389 109.137-242.526 242.526-242.526zM485.053 299.789c-163.678 0-485.053-78.848-485.053-242.526v-121.263h970.105v121.263c0 163.678-321.374 242.526-485.053 242.526z" />
<glyph unicode="&#xe901;" glyph-name="back" d="M980.872 488.358h-734.871l337.318 337.318-84.329 84.329-481.882-481.882 481.882-481.882 84.329 84.329-337.318 337.318h734.871z" />
<glyph unicode="&#xe902;" glyph-name="camera" horiz-adv-x="1229" d="M591.36 553.984c-97.98 0-177.408-79.428-177.408-177.408s79.428-177.408 177.408-177.408v0c97.98 0 177.408 79.428 177.408 177.408s-79.428 177.408-177.408 177.408v0zM1064.448 731.392h-141.926c-19.507 0-40.55 15.155-46.694 33.638l-36.71 110.080c-6.144 18.534-27.136 33.69-46.694 33.69h-402.125c-19.507 0-40.55-15.155-46.694-33.638l-36.71-110.080c-6.144-18.534-27.136-33.69-46.694-33.69h-141.926c-65.024 0-118.272-53.248-118.272-118.272v-532.224c0-65.024 53.248-118.272 118.272-118.272h946.176c65.024 0 118.272 53.248 118.272 118.272v532.224c0 65.024-53.248 118.272-118.272 118.272zM591.36 80.896c-163.3 0-295.68 132.38-295.68 295.68s132.38 295.68 295.68 295.68v0c163.3 0 295.68-132.38 295.68-295.68s-132.38-295.68-295.68-295.68v0zM1023.027 530.432c-22.862 0-41.395 18.533-41.395 41.395s18.533 41.395 41.395 41.395v0c22.862 0 41.395-18.533 41.395-41.395s-18.533-41.395-41.395-41.395v0z" />
<glyph unicode="&#xe903;" glyph-name="cart" d="M306.381 139.264c-53.504 0-97.28-43.776-97.28-97.28s43.776-97.28 97.28-97.28 97.28 43.776 97.28 97.28-43.776 97.28-97.28 97.28zM14.541 917.504v-97.28h97.28l175.104-369.664-68.096-116.736c-4.864-14.592-9.728-34.048-9.728-48.64 0-53.504 43.776-97.28 97.28-97.28h583.68v97.28h-564.224c-5.222 0.358-9.37 4.506-9.726 9.696l-0.002 0.032v4.864l43.776 82.688h359.936c38.912 0 68.096 19.456 82.688 48.64l175.104 316.16c9.728 9.728 9.728 14.592 9.728 24.32 0 29.184-19.456 48.64-48.64 48.64h-719.872l-43.725 97.28h-160.563zM792.781 139.264c-53.504 0-97.28-43.776-97.28-97.28s43.776-97.28 97.28-97.28 97.28 43.776 97.28 97.28-43.776 97.28-97.28 97.28z" />
<glyph unicode="&#xe904;" glyph-name="chevron-right" horiz-adv-x="745" d="M54.831 55.436l405.039 392.564-405.039 392.564 123.252 119.436 528.384-512-528.384-512z" />
<glyph unicode="&#xe905;" glyph-name="close" horiz-adv-x="1117" d="M698.461 448l353.094 353.094c17.534 16.951 28.42 40.684 28.42 66.959 0 51.413-41.678 93.091-93.091 93.091-26.275 0-50.008-10.886-66.934-28.393l-0.025-0.026-353.094-353.094-353.094 353.094c-16.951 17.534-40.684 28.42-66.959 28.42-51.413 0-93.091-41.678-93.091-93.091 0-26.275 10.886-50.008 28.393-66.934l0.026-0.025 353.001-353.094-353.001-353.094c-16.168-16.723-26.132-39.534-26.132-64.671 0-51.413 41.678-93.091 93.091-93.091 25.137 0 47.948 9.964 64.697 26.157l-0.026-0.025 353.094 353.094 353.094-353.094c16.951-17.534 40.684-28.42 66.959-28.42 51.413 0 93.091 41.678 93.091 93.091 0 26.275-10.886 50.008-28.393 66.934l-0.026 0.025-353.094 353.094z" />
<glyph unicode="&#xe906;" glyph-name="disukai" d="M512-64l-71.68 73.557c-266.24 241.778-440.32 404.764-440.32 604.444 0 162.987 122.88 289.109 281.6 289.109 87.040 0 174.080-42.098 230.4-110.364 56.32 68.267 143.36 110.364 230.4 110.364 158.72 0 281.6-126.123 281.6-289.109 0-199.68-174.080-362.667-440.32-604.444l-71.68-73.557z" />
<glyph unicode="&#xe907;" glyph-name="elektronik" horiz-adv-x="1122" d="M992.597 946.152h-858.21c-59.002 0-107.276-48.762-107.276-108.349v-650.191c0-59.587 48.274-108.349 107.276-108.349h214.552v-108.349h429.105v108.349h214.552c59.002 0 107.276 48.762 107.276 108.349v650.191c0 59.587-48.274 108.349-107.276 108.349zM992.597 187.611h-858.21v650.191h858.21v-650.191z" />
<glyph unicode="&#xe908;" glyph-name="fashion" horiz-adv-x="1178" d="M1153.434 795.546c-2.395 6.536-7.174 11.714-13.257 14.577l-0.157 0.066-214.733 98.406c-45.67 15.36-92.211 27.494-139.264 36.352-1.491 0.313-3.204 0.493-4.959 0.493-11.964 0-21.979-8.34-24.55-19.524l-0.033-0.169c-17.806-75.635-84.717-131.072-164.576-131.072-0.101 0-0.203 0-0.304 0h0.016c-0.074 0-0.161 0-0.249 0-79.84 0-146.739 55.411-164.336 129.875l-0.228 1.146c-2.628 11.352-12.652 19.684-24.622 19.684-1.741 0-3.441-0.176-5.083-0.512l0.163 0.028c-46.95-8.858-93.491-20.992-139.264-36.352l-214.733-98.355c-8.805-4.039-14.81-12.778-14.81-22.919 0-4.195 1.027-8.149 2.844-11.626l-0.066 0.139 93.235-182.63c4.276-8.305 12.789-13.888 22.607-13.888 2.62 0 5.147 0.398 7.525 1.136l-0.18-0.048 103.526 30.464v-612.864c0-13.926 11.469-25.293 25.498-25.293h616.448c0 0 0 0 0 0 13.971 0 25.308 11.282 25.395 25.233v612.923l103.629-30.464c2.162-0.663 4.648-1.044 7.222-1.044 9.827 0 18.355 5.559 22.612 13.704l0.067 0.141 93.286 182.682c1.731 3.326 2.747 7.264 2.747 11.438 0 2.983-0.519 5.845-1.47 8.501l0.055-0.176z" />
<glyph unicode="&#xe909;" glyph-name="hamburger" horiz-adv-x="1570" d="M19.388-52.395h1501.867v159.266h-1501.867v-159.266zM19.388 345.805h1501.867v159.334h-1501.867v-159.334zM19.388 903.339v-159.266h1501.867v159.266h-1501.867z" />
<glyph unicode="&#xe90a;" glyph-name="handphone" horiz-adv-x="579" d="M496.863 947.356h-410.045c-34.059 0-62.019-29.741-62.019-66.159v-847.16c0-36.374 27.96-66.159 62.108-66.159h410.045c34.148 0 62.108 29.696 62.108 66.159v847.16c0 36.419-27.96 66.159-62.152 66.159zM226.304 899.673h131.161c4.141 0 7.524-3.562 7.524-8.014s-3.384-8.014-7.569-8.014h-131.072c-4.185 0-7.569 3.562-7.569 8.014s3.384 8.014 7.569 8.014zM291.885 0.957c-17.185 0-31.076 14.781-31.076 33.080s13.891 33.080 31.076 33.080c17.141 0 31.032-14.781 31.032-33.080 0-18.254-13.891-33.080-31.032-33.080zM515.784 90.312h-447.8v752.106h447.8v-752.106z" />
<glyph unicode="&#xe90b;" glyph-name="home" horiz-adv-x="1186" d="M474.274-64v342.393h237.137v-342.393h296.421v456.488h177.853l-592.842 513.617-592.842-513.617h177.853v-456.488z" />
<glyph unicode="&#xe90c;" glyph-name="information" horiz-adv-x="983" d="M483.82 919.040c-267.182 0-483.82-216.637-483.82-483.82s216.637-483.86 483.82-483.86 483.86 216.678 483.86 483.86c0 267.182-216.678 483.82-483.86 483.82zM584.54 169.185c-24.904-9.83-44.728-17.285-59.597-22.446-14.573-4.925-31.357-7.768-48.805-7.768-1.015 0-2.027 0.010-3.038 0.029l0.152-0.002c-30.147 0-53.617 7.373-70.328 22.077-15.369 13.153-25.048 32.571-25.048 54.249 0 0.613 0.008 1.224 0.023 1.834l-0.002-0.090c0 8.806 0.614 17.818 1.843 26.993 1.829 12.544 3.931 23.071 6.512 33.41l-0.49-2.321 31.171 110.1c2.744 10.568 5.12 20.603 7.004 29.942 1.884 9.421 2.785 18.063 2.785 25.928 0 14.008-2.908 23.839-8.684 29.368-5.857 5.53-16.876 8.233-33.3 8.233-8.028 0-16.302-1.188-24.781-3.686-8.397-2.58-15.688-4.915-21.668-7.209l8.233 33.915c20.398 8.315 39.936 15.442 58.573 21.34 15.731 5.445 33.866 8.695 52.728 8.928l0.11 0.001c29.942 0 53.043-7.291 69.304-21.709 16.179-14.459 24.33-33.26 24.33-56.361 0-4.792-0.573-13.23-1.679-25.272-1.070-12.278-3.274-23.576-6.536-34.416l0.31 1.198-31.007-109.773c-2.32-7.762-4.695-17.921-6.558-28.258l-0.282-1.889c-1.583-7.536-2.656-16.353-2.982-25.359l-0.008-0.282c0-14.582 3.236-24.535 9.789-29.819 6.472-5.284 17.818-7.946 33.874-7.946 7.578 0 16.056 1.352 25.641 3.973 9.503 2.621 16.384 4.956 20.726 6.963l-8.315-33.874zM579.052 614.748c-13.221-12.489-31.104-20.166-50.779-20.166-0.508 0-1.015 0.005-1.52 0.015l0.076-0.001c-20.316 0-37.847 6.717-52.429 20.152-13.416 11.843-21.834 29.081-21.834 48.285 0 0.204 0.001 0.408 0.003 0.611v-0.031c0 19.046 7.373 35.43 21.832 48.988 13.277 12.612 31.27 20.369 51.076 20.369 0.476 0 0.951-0.004 1.424-0.013l-0.071 0.001c20.357 0 37.806-6.758 52.224-20.357 14.459-13.558 21.709-29.942 21.709-48.988 0-19.128-7.25-35.43-21.709-48.865z" />
<glyph unicode="&#xe90d;" glyph-name="kuliner" d="M692.92 371.651l-37.192-38.093-100.762 103.219 60.375 61.85c22.271-14.322 49.461-22.832 78.638-22.832 40.045 0 76.347 16.030 102.838 42.023l-0.023-0.023 0.082-0.082 208.896 214.016-48.538 49.766-160.358-164.25-32.85 33.669 160.317 164.25-48.579 49.766-160.317-164.25-32.85 33.669 160.317 164.25-48.579 49.766-208.855-214.098c-47.514-51.282-53.74-127.918-18.719-185.876l-23.020-23.552-233.472 239.206c-54.635 56.336-131.030 91.299-215.592 91.299-15.705 0-31.129-1.206-46.184-3.531l1.679 0.213c-26.092-3.932-36.618-36.659-17.981-55.788l388.301-397.722-64.307-65.864-37.192 38.093-247.398-253.42c-15.764-16.276-25.481-38.491-25.481-62.976s9.717-46.7 25.504-63l-0.023 0.024c15.564-16.084 37.346-26.069 61.46-26.069s45.897 9.985 61.438 26.046l0.023 0.023 247.398 253.42-37.192 38.093 101.663 104.12 100.762-103.219-37.151-38.052 247.398-253.42c15.562-16.072 37.336-26.048 61.44-26.048s45.878 9.976 61.418 26.025l0.022 0.023c15.753 16.274 25.461 38.481 25.461 62.956s-9.709 46.682-25.485 62.98l0.024-0.025-247.398 253.42z" />
<glyph unicode="&#xe90e;" glyph-name="lainnya" d="M124.635 848.628v-243.81h243.81v243.81h-243.81zM75.874 946.152h341.333c26.93 0 48.762-21.831 48.762-48.762v0-341.333c0-26.93-21.831-48.762-48.762-48.762v0h-341.333c-26.93 0-48.762 21.831-48.762 48.762v0 341.333c0 26.93 21.831 48.762 48.762 48.762v0zM661.016 848.628v-243.81h243.81v243.81h-243.81zM612.254 946.152h341.333c26.93 0 48.762-21.831 48.762-48.762v0-341.333c0-26.93-21.831-48.762-48.762-48.762v0h-341.333c-26.93 0-48.762 21.831-48.762 48.762v0 341.333c0 26.93 21.831 48.762 48.762 48.762v0zM661.016 312.247v-243.81h243.81v243.81h-243.81zM612.254 409.771h341.333c26.93 0 48.762-21.831 48.762-48.762v0-341.333c0-26.93-21.831-48.762-48.762-48.762v0h-341.333c-26.93 0-48.762 21.831-48.762 48.762v0 341.333c0 26.93 21.831 48.762 48.762 48.762v0zM124.635 312.247v-243.81h243.81v243.81h-243.81zM75.874 409.771h341.333c26.93 0 48.762-21.831 48.762-48.762v0-341.333c0-26.93-21.831-48.762-48.762-48.762v0h-341.333c-26.93 0-48.762 21.831-48.762 48.762v0 341.333c0 26.93 21.831 48.762 48.762 48.762v0z" />
<glyph unicode="&#xe90f;" glyph-name="like" horiz-adv-x="1152" d="M826.496 960c-92.48 0-184.96-44.8-244.8-117.504-59.84 72.704-152.32 117.504-244.8 117.504-168.64 0-299.2-134.272-299.2-307.776 0-212.608 184.96-386.112 467.84-643.456l76.16-72.768 76.16 72.768c277.44 262.976 467.84 436.48 467.84 643.456 0 173.44-130.56 307.776-299.2 307.776zM587.136 87.040h-5.44l-5.44 5.632c-261.12 240.64-429.76 397.312-429.76 559.552 0 111.936 81.6 195.84 190.4 195.84 81.6 0 163.2-55.936 195.84-134.272h103.36c27.2 78.336 108.8 134.272 190.4 134.272 108.8 0 190.4-83.904 190.4-195.84 0-162.24-168.64-318.912-429.76-565.12z" />
<glyph unicode="&#xe910;" glyph-name="message" horiz-adv-x="970" d="M921.6 712.084h-97.011v-436.547h-630.568v-97.011c0-29.103 19.402-48.505 48.505-48.505h533.558l194.021-194.021v727.579c0 29.103-19.402 48.505-48.505 48.505zM727.579 421.053v436.547c0 29.103-19.402 48.505-48.505 48.505h-630.568c-29.103 0-48.505-19.402-48.505-48.505v-679.074l194.021 194.021h485.053c29.103 0 48.505 19.402 48.505 48.505z" />
<glyph unicode="&#xe911;" glyph-name="messages" d="M970.993 752.429h-96.376v-433.694h-626.447v-96.376c0-28.913 19.275-48.188 48.188-48.188h530.071l192.753-192.753v722.824c0 28.913-19.275 48.188-48.188 48.188zM778.24 463.3v433.694c0 28.913-19.275 48.188-48.188 48.188h-626.447c-28.913 0-48.188-19.275-48.188-48.188v-674.635l192.753 192.753h481.882c28.913 0 48.188 19.275 48.188 48.188z" />
<glyph unicode="&#xe912;" glyph-name="more" horiz-adv-x="3243" d="M384 21.333c-212.077 0-384 171.923-384 384s171.923 384 384 384v0c212.077 0 384-171.923 384-384s-171.923-384-384-384v0zM1612.8 21.333c-212.077 0-384 171.923-384 384s171.923 384 384 384v0c212.077 0 384-171.923 384-384s-171.923-384-384-384v0zM2841.6 21.333c-212.077 0-384 171.923-384 384s171.923 384 384 384v0c212.077 0 384-171.923 384-384s-171.923-384-384-384v0z" />
<glyph unicode="&#xe913;" glyph-name="produk" horiz-adv-x="922" d="M524.8 447.744l361.83 208.845v-470.221l-407.040-235.008v470.221l45.261 26.112zM598.528 869.376l-418.202-241.459-156.672 90.624 418.304 241.459 156.518-90.624zM860.058 718.49l-418.048-241.459-156.57 90.368-23.859 12.39 418.099 241.459 180.378-102.758zM229.99 406.938v114.432l174.746-100.659v-466.842l-404.122 233.318v466.893l154.522-88.934v-119.706l74.906-38.502z" />
<glyph unicode="&#xe914;" glyph-name="promo" horiz-adv-x="975" d="M883.614 911.238h-274.822c-50.371 0-120.734-29.16-156.379-64.756l-425.691-425.691c-35.596-35.645-35.596-93.964 0-129.609l328.46-328.46c35.645-35.596 93.964-35.596 129.56 0l425.691 425.691c35.694 35.596 64.805 106.008 64.805 156.379v274.822c-0.138 50.547-41.077 91.485-91.61 91.624h-0.013zM761.905 606.476c-50.495 0-91.429 40.934-91.429 91.429s40.934 91.429 91.429 91.429v0c50.495 0 91.429-40.934 91.429-91.429s-40.934-91.429-91.429-91.429v0z" />
<glyph unicode="&#xe915;" glyph-name="search" d="M701.235 333.653h-43.691l-16.384 16.384c54.613 60.075 87.381 141.995 87.381 229.376 0 196.608-158.379 354.987-354.987 354.987-0.203 0-0.443 0.001-0.683 0.001-195.677 0-354.304-158.627-354.304-354.304 0-0.24 0-0.48 0.001-0.721v0.037c0-196.608 158.379-354.987 354.987-354.987 87.381 0 169.301 32.768 229.376 87.381l16.384-16.384v-43.691l273.067-273.067 81.92 81.92-273.067 273.067zM373.555 333.653c-136.533 0-245.76 109.227-245.76 245.76s109.227 245.76 245.76 245.76 245.76-109.227 245.76-245.76-109.227-245.76-245.76-245.76z" />
<glyph unicode="&#xe916;" glyph-name="setting" horiz-adv-x="986" d="M957.023 488.808c-1.517 13.274-17.029 23.324-30.455 23.324-0.269-0.002-0.587-0.004-0.906-0.004-43.608 0-81.026 26.503-97.025 64.28l-0.26 0.691c-4.835 11.673-7.643 25.229-7.643 39.44 0 30.747 13.142 58.424 34.116 77.721l0.075 0.068c5.258 4.828 8.543 11.735 8.543 19.409 0 6.205-2.147 11.908-5.739 16.408l0.041-0.053c-22.41 28.341-47.059 53.23-74.202 75.155l-0.891 0.697c-4.47 3.59-10.212 5.761-16.461 5.761-7.75 0-14.72-3.34-19.549-8.659l-0.020-0.022c-28.255-31.289-79-42.932-118.253-26.548-38.046 16.443-64.186 53.647-64.186 96.956 0 2.089 0.061 4.163 0.181 6.222l-0.013-0.284c0.030 0.469 0.047 1.017 0.047 1.569 0 13.476-10.143 24.584-23.211 26.105l-0.123 0.012c-16.407 2.016-35.4 3.167-54.662 3.167-18.315 0-36.387-1.040-54.16-3.065l2.174 0.201c-13.274-1.513-23.491-12.681-23.491-26.236 0-0.31 0.005-0.618 0.016-0.926l-0.001 0.045c0.043-1.123 0.067-2.443 0.067-3.768 0-43.63-26.492-81.073-64.268-97.12l-0.691-0.261c-38.76-15.853-89.164-4.324-117.381 26.7-4.851 5.3-11.8 8.612-19.523 8.612-6.149 0-11.808-2.1-16.299-5.621l0.058 0.043c-28.444-22.3-54.234-47.825-76.686-75.852-3.627-4.478-5.823-10.245-5.823-16.525 0-7.72 3.319-14.666 8.608-19.486l0.021-0.019c21.292-19.3 34.609-47.062 34.609-77.935 0-14.563-2.963-28.435-8.32-41.044l0.26 0.688c-16.384-38.95-56.889-64.095-103.159-64.095-0.524 0.038-1.135 0.059-1.75 0.059-13.369 0-24.363-10.173-25.661-23.201l-0.009-0.108c-4.172-35.65-4.21-71.908-0.19-107.823 1.479-13.388 17.484-23.324 31.099-23.324 41.263 1.062 80.896-24.5 97.508-64.967 4.859-11.689 7.68-25.267 7.68-39.504 0-30.708-13.128-58.35-34.078-77.619l-0.075-0.068c-5.264-4.835-8.551-11.75-8.551-19.433 0-6.192 2.135-11.886 5.71-16.385l-0.042 0.054c21.997-28.065 47.294-53.589 74.98-75.852 10.847-8.761 26.662-7.547 36.068 2.844 28.369 31.365 79.151 42.97 118.215 26.586 38.083-16.368 64.268-53.558 64.268-96.864 0-2.121-0.063-4.227-0.187-6.317l0.014 0.288c-0.029-0.459-0.045-0.995-0.045-1.536 0-13.483 10.138-24.598 23.208-26.138l0.124-0.012c16.411-2.026 35.408-3.183 54.674-3.183 18.324 0 36.405 1.046 54.184 3.081l-2.173-0.202c13.275 1.512 23.492 12.681 23.492 26.236 0 0.323-0.006 0.645-0.017 0.965l0.001-0.046c-0.044 1.139-0.069 2.477-0.069 3.821 0 43.596 26.479 81.008 64.233 97.030l0.69 0.26c39.026 15.929 89.202 4.248 117.419-26.738 4.854-5.267 11.786-8.554 19.487-8.554 6.164 0 11.836 2.107 16.335 5.639l-0.057-0.043c28.665 22.613 53.83 47.5 75.987 74.919l0.7 0.895c3.635 4.477 5.837 10.245 5.837 16.529 0 7.722-3.325 14.667-8.622 19.482l-0.021 0.019c-21.285 19.299-34.597 47.057-34.597 77.925 0 14.553 2.959 28.415 8.308 41.017l-0.259-0.688c16.587 37.942 53.685 64.028 96.906 64.284h0.033l5.879-0.152c0.463-0.029 1.004-0.045 1.548-0.045 13.485 0 24.608 10.112 26.201 23.167l0.013 0.127c4.172 35.65 4.21 71.908 0.19 107.823zM486.665 276.954c-87.192 0-158.151 70.921-158.151 158.151s70.959 158.151 158.151 158.151c87.23 0 158.151-70.921 158.151-158.151s-70.921-158.151-158.151-158.151z" />
<glyph unicode="&#xe917;" glyph-name="share" horiz-adv-x="1144" d="M1139.652 469.865l-459.113 475.256v-316.536c-345.269 0-625.122-289.732-625.122-647.168 126.795 239.315 378.458 362.737 625.122 331.113v-318.042l459.113 475.377z" />
<glyph unicode="&#xe918;" glyph-name="star" horiz-adv-x="1132" d="M1109.639 569.587l-387.557 33.253-151.444 357.16-151.336-357.16-387.557-33.253 293.996-254.76-88.118-378.826 333.069 200.92 333.069-200.92-88.118 378.826 293.996 254.76zM570.691 238.026l-202.806-122.341 53.679 230.723-179.092 155.109 236.059 20.264 92.16 217.519 92.16-217.519 236.059-20.264-179.038-155.109 53.679-230.723-202.86 122.341z" />
<glyph unicode="&#xe919;" glyph-name="tambah" horiz-adv-x="1092" d="M620.476 516.267v366.182c0 37.703-30.564 68.267-68.267 68.267s-68.267-30.564-68.267-68.267v0-366.182h-366.182c-37.703 0-68.267-30.564-68.267-68.267s30.564-68.267 68.267-68.267v0h366.182v-366.182c0-37.703 30.564-68.267 68.267-68.267s68.267 30.564 68.267 68.267v0 366.182h366.182c37.703 0 68.267 30.564 68.267 68.267s-30.564 68.267-68.267 68.267v0h-366.182z" />
</font>
</defs>
</svg>
